# xmcd
#
# Track frame offsets: 
#        150
#        12665
#        25507
#        36567
#        44317
#        56077
#        67397
#        78017
#        89345
#        102030
#
# Disc length: 1634 seconds
#
# Revision: 0
# Processed by: cddbd v1.5.2PL0 Copyright (c) Steve Scherf et al.
# Submitted via: ExactAudioCopy v1.3
#
DISCID=7f06600a
DTITLE=The Whispers - The Whispers - Planets Of Life
DYEAR=1969
DGENRE=Soul
TTITLE0=You Must Be Doing All Right
TTITLE1=Seems  Like I Gotta Do Wrong
TTITLE2=Planets Of Life
TTITLE3=They're Gonna Hear For Me
TTITLE4=A Singer Of Songs
TTITLE5=I Can Remember
TTITLE6=Needle In Haystack
TTITLE7=Creation Of Life
TTITLE8=I'm The One
TTITLE9=You Made Me So Very Happy
EXTD=
EXTT0=
EXTT1=
EXTT2=
EXTT3=
EXTT4=
EXTT5=
EXTT6=
EXTT7=
EXTT8=
EXTT9=
PLAYORDER=
